<mxfile host="Electron" agent="Mozilla/5.0 (Macintosh; Intel Mac OS X 10_15_7) AppleWebKit/537.36 (KHTML, like Gecko) draw.io/28.1.2 Chrome/138.0.7204.243 Electron/37.4.0 Safari/537.36" version="28.1.2">
  <diagram name="페이지-1" id="ge7ynudYH0SWpXRpJTb-">
    <mxGraphModel dx="3169" dy="1753" grid="1" gridSize="10" guides="1" tooltips="1" connect="1" arrows="1" fold="1" page="1" pageScale="1" pageWidth="827" pageHeight="1169" background="#ffffff" math="1" shadow="0">
      <root>
        <mxCell id="0" />
        <mxCell id="1" parent="0" />
        <mxCell id="ZkdpZ8pQUQYbcLdI2gs5-3" value="" style="group" vertex="1" connectable="0" parent="1">
          <mxGeometry x="20" y="222" width="751" height="724" as="geometry" />
        </mxCell>
        <mxCell id="-oPGyq5Cqz7-k8GaQxrX-370" value="" style="group;rotation=-135;" parent="ZkdpZ8pQUQYbcLdI2gs5-3" vertex="1" connectable="0">
          <mxGeometry x="90.00395054638602" y="505.00288273452065" width="166.99604945361398" height="120" as="geometry" />
        </mxCell>
        <mxCell id="-oPGyq5Cqz7-k8GaQxrX-371" value="" style="rounded=0;whiteSpace=wrap;html=1;fillColor=#f8cecc;strokeColor=default;rotation=-135;" parent="-oPGyq5Cqz7-k8GaQxrX-370" vertex="1">
          <mxGeometry x="41" y="19" width="78.75" height="68.57142857142857" as="geometry" />
        </mxCell>
        <mxCell id="-oPGyq5Cqz7-k8GaQxrX-372" value="" style="rounded=0;whiteSpace=wrap;html=1;fillColor=#dae8fc;strokeColor=default;rotation=-135;" parent="-oPGyq5Cqz7-k8GaQxrX-370" vertex="1">
          <mxGeometry x="97" y="15" width="26.25" height="17.142857142857142" as="geometry" />
        </mxCell>
        <mxCell id="-oPGyq5Cqz7-k8GaQxrX-373" value="" style="rounded=0;whiteSpace=wrap;html=1;fillColor=#dae8fc;strokeColor=default;rotation=-135;" parent="-oPGyq5Cqz7-k8GaQxrX-370" vertex="1">
          <mxGeometry x="45" y="75" width="8.75" height="17.142857142857142" as="geometry" />
        </mxCell>
        <mxCell id="-oPGyq5Cqz7-k8GaQxrX-374" value="" style="rounded=0;whiteSpace=wrap;html=1;fillColor=#dae8fc;strokeColor=default;rotation=-135;" parent="-oPGyq5Cqz7-k8GaQxrX-370" vertex="1">
          <mxGeometry x="-9" y="89" width="96.25" height="8.571428571428571" as="geometry" />
        </mxCell>
        <mxCell id="-oPGyq5Cqz7-k8GaQxrX-375" value="" style="shape=cylinder3;whiteSpace=wrap;html=1;boundedLbl=1;backgroundOutline=1;size=2.875;direction=south;fillColor=#f8cecc;strokeColor=default;rotation=-135;" parent="-oPGyq5Cqz7-k8GaQxrX-370" vertex="1">
          <mxGeometry x="-13" y="39" width="21.875" height="25.71428571428571" as="geometry" />
        </mxCell>
        <mxCell id="-oPGyq5Cqz7-k8GaQxrX-376" value="" style="shape=cylinder3;whiteSpace=wrap;html=1;boundedLbl=1;backgroundOutline=1;size=2.875;direction=south;fillColor=#f8cecc;strokeColor=default;rotation=-135;" parent="-oPGyq5Cqz7-k8GaQxrX-370" vertex="1">
          <mxGeometry x="71" y="121" width="21.875" height="25.71428571428571" as="geometry" />
        </mxCell>
        <mxCell id="wP25u6oJwDEnEGt5gR-9-16" value="&lt;span style=&quot;font-weight: 400;&quot;&gt;&lt;font style=&quot;color: rgb(0, 0, 0);&quot;&gt;`t = 1`&lt;/font&gt;&lt;/span&gt;" style="text;html=1;align=center;verticalAlign=middle;whiteSpace=wrap;rounded=0;fontSize=30;fontColor=#B9E0A5;fontStyle=1" parent="-oPGyq5Cqz7-k8GaQxrX-370" vertex="1">
          <mxGeometry x="-9.623950546386023" y="36.857117265479346" width="180" height="30" as="geometry" />
        </mxCell>
        <mxCell id="-oPGyq5Cqz7-k8GaQxrX-377" value="" style="ellipse;whiteSpace=wrap;html=1;fillColor=#e1d5e7;strokeColor=#9673a6;" parent="ZkdpZ8pQUQYbcLdI2gs5-3" vertex="1">
          <mxGeometry x="284" y="420" width="80" height="75" as="geometry" />
        </mxCell>
        <mxCell id="-oPGyq5Cqz7-k8GaQxrX-378" value="" style="shape=cylinder3;whiteSpace=wrap;html=1;boundedLbl=1;backgroundOutline=1;size=9.481481481481381;fillColor=#d5e8d4;strokeColor=#82b366;" parent="ZkdpZ8pQUQYbcLdI2gs5-3" vertex="1">
          <mxGeometry x="364" y="40" width="140" height="90" as="geometry" />
        </mxCell>
        <mxCell id="-oPGyq5Cqz7-k8GaQxrX-379" value="Goal" style="text;html=1;align=center;verticalAlign=middle;whiteSpace=wrap;rounded=0;fontSize=30;fontColor=#B9E0A5;fontStyle=1" parent="ZkdpZ8pQUQYbcLdI2gs5-3" vertex="1">
          <mxGeometry x="404" width="76" height="53" as="geometry" />
        </mxCell>
        <mxCell id="-oPGyq5Cqz7-k8GaQxrX-380" value="&lt;font style=&quot;color: rgb(234, 107, 102);&quot;&gt;Agent&lt;/font&gt;" style="text;html=1;align=center;verticalAlign=middle;whiteSpace=wrap;rounded=0;fontSize=30;fontColor=#B9E0A5;fontStyle=1" parent="ZkdpZ8pQUQYbcLdI2gs5-3" vertex="1">
          <mxGeometry y="520" width="90" height="30" as="geometry" />
        </mxCell>
        <mxCell id="-oPGyq5Cqz7-k8GaQxrX-381" value="&lt;font style=&quot;color: rgb(181, 115, 157);&quot;&gt;Hazard&lt;/font&gt;" style="text;html=1;align=center;verticalAlign=middle;whiteSpace=wrap;rounded=0;fontSize=30;fontColor=#B9E0A5;fontStyle=1" parent="ZkdpZ8pQUQYbcLdI2gs5-3" vertex="1">
          <mxGeometry x="304" y="380" width="106" height="30" as="geometry" />
        </mxCell>
        <mxCell id="-oPGyq5Cqz7-k8GaQxrX-382" value="" style="ellipse;whiteSpace=wrap;html=1;fillColor=#e1d5e7;strokeColor=#9673a6;" parent="ZkdpZ8pQUQYbcLdI2gs5-3" vertex="1">
          <mxGeometry x="110" y="305" width="80" height="75" as="geometry" />
        </mxCell>
        <mxCell id="-oPGyq5Cqz7-k8GaQxrX-383" value="" style="group;rotation=-150;opacity=23;" parent="ZkdpZ8pQUQYbcLdI2gs5-3" vertex="1" connectable="0">
          <mxGeometry x="209.9960145752998" y="396.00227626853666" width="168.3739854247002" height="120" as="geometry" />
        </mxCell>
        <mxCell id="-oPGyq5Cqz7-k8GaQxrX-384" value="" style="rounded=0;whiteSpace=wrap;html=1;fillColor=#f8cecc;strokeColor=default;rotation=-150;" parent="-oPGyq5Cqz7-k8GaQxrX-383" vertex="1">
          <mxGeometry x="39" y="17" width="78.75" height="68.57142857142857" as="geometry" />
        </mxCell>
        <mxCell id="-oPGyq5Cqz7-k8GaQxrX-385" value="" style="rounded=0;whiteSpace=wrap;html=1;fillColor=#dae8fc;strokeColor=default;rotation=-150;" parent="-oPGyq5Cqz7-k8GaQxrX-383" vertex="1">
          <mxGeometry x="87" y="6" width="26.25" height="17.142857142857142" as="geometry" />
        </mxCell>
        <mxCell id="-oPGyq5Cqz7-k8GaQxrX-386" value="" style="rounded=0;whiteSpace=wrap;html=1;fillColor=#dae8fc;strokeColor=default;rotation=-150;" parent="-oPGyq5Cqz7-k8GaQxrX-383" vertex="1">
          <mxGeometry x="52" y="80" width="8.75" height="17.142857142857142" as="geometry" />
        </mxCell>
        <mxCell id="-oPGyq5Cqz7-k8GaQxrX-387" value="" style="rounded=0;whiteSpace=wrap;html=1;fillColor=#dae8fc;strokeColor=default;rotation=-150;" parent="-oPGyq5Cqz7-k8GaQxrX-383" vertex="1">
          <mxGeometry x="1" y="96" width="96.25" height="8.571428571428571" as="geometry" />
        </mxCell>
        <mxCell id="-oPGyq5Cqz7-k8GaQxrX-388" value="" style="shape=cylinder3;whiteSpace=wrap;html=1;boundedLbl=1;backgroundOutline=1;size=2.875;direction=south;fillColor=#f8cecc;strokeColor=default;rotation=-150;" parent="-oPGyq5Cqz7-k8GaQxrX-383" vertex="1">
          <mxGeometry x="-13" y="58" width="21.875" height="25.71428571428571" as="geometry" />
        </mxCell>
        <mxCell id="-oPGyq5Cqz7-k8GaQxrX-389" value="" style="shape=cylinder3;whiteSpace=wrap;html=1;boundedLbl=1;backgroundOutline=1;size=2.875;direction=south;fillColor=#f8cecc;strokeColor=default;rotation=-150;" parent="-oPGyq5Cqz7-k8GaQxrX-383" vertex="1">
          <mxGeometry x="89" y="116" width="21.875" height="25.71428571428571" as="geometry" />
        </mxCell>
        <mxCell id="wP25u6oJwDEnEGt5gR-9-17" value="&lt;span style=&quot;font-weight: 400;&quot;&gt;&lt;font style=&quot;color: rgb(0, 0, 0);&quot;&gt;`t = 2`&lt;/font&gt;&lt;/span&gt;" style="text;html=1;align=center;verticalAlign=middle;whiteSpace=wrap;rounded=0;fontSize=30;fontColor=#B9E0A5;fontStyle=1" parent="-oPGyq5Cqz7-k8GaQxrX-383" vertex="1">
          <mxGeometry x="-11.626014575299791" y="36.2877237314633" width="180" height="30" as="geometry" />
        </mxCell>
        <mxCell id="-oPGyq5Cqz7-k8GaQxrX-390" value="" style="group;rotation=-165;opacity=23;" parent="ZkdpZ8pQUQYbcLdI2gs5-3" vertex="1" connectable="0">
          <mxGeometry x="270.0017782649106" y="240.00152422706628" width="165.37822173508937" height="120" as="geometry" />
        </mxCell>
        <mxCell id="-oPGyq5Cqz7-k8GaQxrX-391" value="" style="rounded=0;whiteSpace=wrap;html=1;fillColor=#f8cecc;strokeColor=default;rotation=-165;" parent="-oPGyq5Cqz7-k8GaQxrX-390" vertex="1">
          <mxGeometry x="36" y="15" width="78.75" height="68.57142857142857" as="geometry" />
        </mxCell>
        <mxCell id="-oPGyq5Cqz7-k8GaQxrX-392" value="" style="rounded=0;whiteSpace=wrap;html=1;fillColor=#dae8fc;strokeColor=default;rotation=-165;" parent="-oPGyq5Cqz7-k8GaQxrX-390" vertex="1">
          <mxGeometry x="74" width="26.25" height="17.142857142857142" as="geometry" />
        </mxCell>
        <mxCell id="-oPGyq5Cqz7-k8GaQxrX-393" value="" style="rounded=0;whiteSpace=wrap;html=1;fillColor=#dae8fc;strokeColor=default;rotation=-165;" parent="-oPGyq5Cqz7-k8GaQxrX-390" vertex="1">
          <mxGeometry x="60" y="83" width="8.75" height="17.142857142857142" as="geometry" />
        </mxCell>
        <mxCell id="-oPGyq5Cqz7-k8GaQxrX-394" value="" style="rounded=0;whiteSpace=wrap;html=1;fillColor=#dae8fc;strokeColor=default;rotation=-165;" parent="-oPGyq5Cqz7-k8GaQxrX-390" vertex="1">
          <mxGeometry x="12" y="100" width="96.25" height="8.571428571428571" as="geometry" />
        </mxCell>
        <mxCell id="-oPGyq5Cqz7-k8GaQxrX-395" value="" style="shape=cylinder3;whiteSpace=wrap;html=1;boundedLbl=1;backgroundOutline=1;size=2.875;direction=south;fillColor=#f8cecc;strokeColor=default;rotation=-165;" parent="-oPGyq5Cqz7-k8GaQxrX-390" vertex="1">
          <mxGeometry x="-8" y="76" width="21.875" height="25.71428571428571" as="geometry" />
        </mxCell>
        <mxCell id="-oPGyq5Cqz7-k8GaQxrX-396" value="" style="shape=cylinder3;whiteSpace=wrap;html=1;boundedLbl=1;backgroundOutline=1;size=2.875;direction=south;fillColor=#f8cecc;strokeColor=default;rotation=-165;" parent="-oPGyq5Cqz7-k8GaQxrX-390" vertex="1">
          <mxGeometry x="106" y="106" width="21.875" height="25.71428571428571" as="geometry" />
        </mxCell>
        <mxCell id="wP25u6oJwDEnEGt5gR-9-26" value="&lt;span style=&quot;font-weight: 400;&quot;&gt;&lt;font style=&quot;color: rgb(0, 0, 0);&quot;&gt;`t = 3`&lt;/font&gt;&lt;/span&gt;" style="text;html=1;align=center;verticalAlign=middle;whiteSpace=wrap;rounded=0;fontSize=30;fontColor=#B9E0A5;fontStyle=1" parent="-oPGyq5Cqz7-k8GaQxrX-390" vertex="1">
          <mxGeometry x="-14.621778264910631" y="34.28847577293368" width="180" height="30" as="geometry" />
        </mxCell>
        <mxCell id="-oPGyq5Cqz7-k8GaQxrX-397" value="" style="group;rotation=-150;opacity=23;" parent="ZkdpZ8pQUQYbcLdI2gs5-3" vertex="1" connectable="0">
          <mxGeometry x="310.003950546386" y="100.00288273452043" width="169.99604945361398" height="120" as="geometry" />
        </mxCell>
        <mxCell id="-oPGyq5Cqz7-k8GaQxrX-398" value="" style="rounded=0;whiteSpace=wrap;html=1;fillColor=#f8cecc;strokeColor=default;rotation=-150;" parent="-oPGyq5Cqz7-k8GaQxrX-397" vertex="1">
          <mxGeometry x="39" y="17" width="78.75" height="68.57142857142857" as="geometry" />
        </mxCell>
        <mxCell id="-oPGyq5Cqz7-k8GaQxrX-399" value="" style="rounded=0;whiteSpace=wrap;html=1;fillColor=#dae8fc;strokeColor=default;rotation=-150;" parent="-oPGyq5Cqz7-k8GaQxrX-397" vertex="1">
          <mxGeometry x="87" y="6" width="26.25" height="17.142857142857142" as="geometry" />
        </mxCell>
        <mxCell id="-oPGyq5Cqz7-k8GaQxrX-400" value="" style="rounded=0;whiteSpace=wrap;html=1;fillColor=#dae8fc;strokeColor=default;rotation=-150;" parent="-oPGyq5Cqz7-k8GaQxrX-397" vertex="1">
          <mxGeometry x="52" y="80" width="8.75" height="17.142857142857142" as="geometry" />
        </mxCell>
        <mxCell id="-oPGyq5Cqz7-k8GaQxrX-401" value="" style="rounded=0;whiteSpace=wrap;html=1;fillColor=#dae8fc;strokeColor=default;rotation=-150;" parent="-oPGyq5Cqz7-k8GaQxrX-397" vertex="1">
          <mxGeometry x="1" y="96" width="96.25" height="8.571428571428571" as="geometry" />
        </mxCell>
        <mxCell id="-oPGyq5Cqz7-k8GaQxrX-402" value="" style="shape=cylinder3;whiteSpace=wrap;html=1;boundedLbl=1;backgroundOutline=1;size=2.875;direction=south;fillColor=#f8cecc;strokeColor=default;rotation=-150;" parent="-oPGyq5Cqz7-k8GaQxrX-397" vertex="1">
          <mxGeometry x="-13" y="58" width="21.875" height="25.71428571428571" as="geometry" />
        </mxCell>
        <mxCell id="-oPGyq5Cqz7-k8GaQxrX-403" value="" style="shape=cylinder3;whiteSpace=wrap;html=1;boundedLbl=1;backgroundOutline=1;size=2.875;direction=south;fillColor=#f8cecc;strokeColor=default;rotation=-150;" parent="-oPGyq5Cqz7-k8GaQxrX-397" vertex="1">
          <mxGeometry x="89" y="116" width="21.875" height="25.71428571428571" as="geometry" />
        </mxCell>
        <mxCell id="wP25u6oJwDEnEGt5gR-9-27" value="&lt;span style=&quot;font-weight: 400;&quot;&gt;&lt;font style=&quot;color: rgb(0, 0, 0);&quot;&gt;`t = 4`&lt;/font&gt;&lt;/span&gt;" style="text;html=1;align=center;verticalAlign=middle;whiteSpace=wrap;rounded=0;fontSize=30;fontColor=#B9E0A5;fontStyle=1" parent="-oPGyq5Cqz7-k8GaQxrX-397" vertex="1">
          <mxGeometry x="-10.003950546386022" y="36.28711726547954" width="180" height="30" as="geometry" />
        </mxCell>
        <mxCell id="-oPGyq5Cqz7-k8GaQxrX-427" style="edgeStyle=orthogonalEdgeStyle;rounded=0;orthogonalLoop=1;jettySize=auto;html=1;exitX=0.5;exitY=1;exitDx=0;exitDy=0;" parent="ZkdpZ8pQUQYbcLdI2gs5-3" edge="1">
          <mxGeometry relative="1" as="geometry">
            <mxPoint x="220" y="270.0000000000002" as="sourcePoint" />
            <mxPoint x="220" y="270.0000000000002" as="targetPoint" />
          </mxGeometry>
        </mxCell>
        <mxCell id="-oPGyq5Cqz7-k8GaQxrX-430" value="" style="curved=1;endArrow=classic;html=1;rounded=0;exitX=0.5;exitY=1;exitDx=0;exitDy=0;entryX=0.5;entryY=1;entryDx=0;entryDy=0;" parent="ZkdpZ8pQUQYbcLdI2gs5-3" source="-oPGyq5Cqz7-k8GaQxrX-374" target="-oPGyq5Cqz7-k8GaQxrX-399" edge="1">
          <mxGeometry width="50" height="50" relative="1" as="geometry">
            <mxPoint x="80" y="366" as="sourcePoint" />
            <mxPoint x="130" y="316" as="targetPoint" />
            <Array as="points">
              <mxPoint x="230" y="506" />
              <mxPoint x="270" y="486" />
              <mxPoint x="280" y="456" />
              <mxPoint x="330" y="386" />
              <mxPoint x="330" y="336" />
              <mxPoint x="360" y="256" />
              <mxPoint x="350" y="226" />
              <mxPoint x="370" y="176" />
            </Array>
          </mxGeometry>
        </mxCell>
        <mxCell id="wP25u6oJwDEnEGt5gR-9-2" value="&lt;font style=&quot;font-weight: normal; color: rgb(0, 0, 255);&quot;&gt;`r_1 = 0.4`&lt;/font&gt;" style="text;html=1;align=center;verticalAlign=middle;whiteSpace=wrap;rounded=0;fontSize=30;fontColor=#B9E0A5;fontStyle=1" parent="ZkdpZ8pQUQYbcLdI2gs5-3" vertex="1">
          <mxGeometry x="200" y="654" width="180" height="30" as="geometry" />
        </mxCell>
        <mxCell id="wP25u6oJwDEnEGt5gR-9-3" value="&lt;font style=&quot;font-weight: normal; color: rgb(255, 0, 0);&quot;&gt;`c_1 = 0`&lt;/font&gt;" style="text;html=1;align=center;verticalAlign=middle;whiteSpace=wrap;rounded=0;fontSize=30;fontColor=#B9E0A5;fontStyle=1" parent="ZkdpZ8pQUQYbcLdI2gs5-3" vertex="1">
          <mxGeometry x="188" y="694" width="180" height="30" as="geometry" />
        </mxCell>
        <mxCell id="wP25u6oJwDEnEGt5gR-9-8" value="&lt;font style=&quot;font-weight: normal; color: rgb(0, 0, 255);&quot;&gt;`r_2 = 0.5`&lt;/font&gt;" style="text;html=1;align=center;verticalAlign=middle;whiteSpace=wrap;rounded=0;fontSize=30;fontColor=#B9E0A5;fontStyle=1" parent="ZkdpZ8pQUQYbcLdI2gs5-3" vertex="1">
          <mxGeometry x="392" y="454" width="180" height="30" as="geometry" />
        </mxCell>
        <mxCell id="wP25u6oJwDEnEGt5gR-9-9" value="&lt;font style=&quot;font-weight: normal; color: rgb(255, 0, 0);&quot;&gt;`c_2 = 1.0`&lt;/font&gt;" style="text;html=1;align=center;verticalAlign=middle;whiteSpace=wrap;rounded=0;fontSize=30;fontColor=#B9E0A5;fontStyle=1" parent="ZkdpZ8pQUQYbcLdI2gs5-3" vertex="1">
          <mxGeometry x="392" y="495" width="180" height="30" as="geometry" />
        </mxCell>
        <mxCell id="wP25u6oJwDEnEGt5gR-9-10" value="&lt;font style=&quot;font-weight: normal; color: rgb(0, 0, 255);&quot;&gt;`r_3 = 0.6`&lt;/font&gt;" style="text;html=1;align=center;verticalAlign=middle;whiteSpace=wrap;rounded=0;fontSize=30;fontColor=#B9E0A5;fontStyle=1" parent="ZkdpZ8pQUQYbcLdI2gs5-3" vertex="1">
          <mxGeometry x="432" y="284" width="180" height="30" as="geometry" />
        </mxCell>
        <mxCell id="wP25u6oJwDEnEGt5gR-9-11" value="&lt;font style=&quot;font-weight: normal; color: rgb(255, 0, 0);&quot;&gt;`c_3 = 0`&lt;/font&gt;" style="text;html=1;align=center;verticalAlign=middle;whiteSpace=wrap;rounded=0;fontSize=30;fontColor=#B9E0A5;fontStyle=1" parent="ZkdpZ8pQUQYbcLdI2gs5-3" vertex="1">
          <mxGeometry x="420" y="324" width="180" height="30" as="geometry" />
        </mxCell>
        <mxCell id="wP25u6oJwDEnEGt5gR-9-14" value="&lt;font style=&quot;font-weight: normal; color: rgb(0, 0, 255);&quot;&gt;`r_4 = 0.7`&lt;/font&gt;" style="text;html=1;align=center;verticalAlign=middle;whiteSpace=wrap;rounded=0;fontSize=30;fontColor=#B9E0A5;fontStyle=1" parent="ZkdpZ8pQUQYbcLdI2gs5-3" vertex="1">
          <mxGeometry x="130" y="84" width="180" height="30" as="geometry" />
        </mxCell>
        <mxCell id="wP25u6oJwDEnEGt5gR-9-15" value="&lt;font style=&quot;font-weight: normal; color: rgb(255, 0, 0);&quot;&gt;`c_4 = 0`&lt;/font&gt;" style="text;html=1;align=center;verticalAlign=middle;whiteSpace=wrap;rounded=0;fontSize=30;fontColor=#B9E0A5;fontStyle=1" parent="ZkdpZ8pQUQYbcLdI2gs5-3" vertex="1">
          <mxGeometry x="118" y="124" width="180" height="30" as="geometry" />
        </mxCell>
        <mxCell id="ICkzkuL-yt_RujRnM5Pi-2" value="" style="curved=1;endArrow=none;html=1;rounded=0;endFill=0;fillColor=#fff2cc;strokeColor=#FFD966;sketch=1;curveFitting=1;jiggle=2;flowAnimation=0;strokeWidth=5;" parent="ZkdpZ8pQUQYbcLdI2gs5-3" edge="1">
          <mxGeometry width="50" height="50" relative="1" as="geometry">
            <mxPoint x="190" y="664" as="sourcePoint" />
            <mxPoint x="190" y="664" as="targetPoint" />
            <Array as="points">
              <mxPoint x="150" y="684" />
              <mxPoint x="110" y="664" />
              <mxPoint x="30" y="544" />
              <mxPoint x="250" y="394" />
              <mxPoint x="250" y="334" />
              <mxPoint x="270" y="194" />
              <mxPoint x="340" y="84" />
              <mxPoint x="450" y="84" />
              <mxPoint x="460" y="174" />
              <mxPoint x="380" y="534" />
            </Array>
          </mxGeometry>
        </mxCell>
        <mxCell id="ZkdpZ8pQUQYbcLdI2gs5-2" value="&lt;font style=&quot;font-size: 40px;&quot;&gt;`\mathbb{E}_{\tau \sim \pi_\theta} \left[\sum_{t = 0}^T c_t \right]`&lt;/font&gt;" style="text;html=1;align=center;verticalAlign=middle;whiteSpace=wrap;rounded=0;fontSize=30;fontColor=#FFD966;fontStyle=1;labelBackgroundColor=none;labelBorderColor=none;textShadow=0;" vertex="1" parent="ZkdpZ8pQUQYbcLdI2gs5-3">
          <mxGeometry x="491" y="130" width="301" height="124" as="geometry" />
        </mxCell>
      </root>
    </mxGraphModel>
  </diagram>
</mxfile>
